<svg width="457" height="618" viewBox="0 0 457 618" fill="none" xmlns="http://www.w3.org/2000/svg">
<rect x="57" y="218" width="100" height="100" fill="#00735C"/>
<rect x="57" y="318" width="100" height="100" fill="#00735C"/>
<rect x="57" y="418" width="100" height="100" rx="8" fill="#C1D9B7"/>
<rect x="157" y="318" width="100" height="100" rx="8" fill="white"/>
<rect x="157" y="418" width="100" height="100" rx="50" fill="#E5A298"/>
<rect x="257" y="318" width="100" height="100" rx="50" fill="#00E091"/>
<rect x="256" y="418" width="100" height="100" rx="8" fill="#00735C"/>
<rect x="157" y="518" width="100" height="100" rx="8" fill="white"/>
<rect x="57" y="518" width="100" height="100" rx="8" fill="#00735C"/>
<rect x="157" y="218" width="100" height="100" rx="8" fill="#00735C"/>
<rect x="357" y="318" width="100" height="100" rx="8" fill="#C1D9B7"/>
<rect x="356" y="418" width="100" height="100" fill="white"/>
<rect x="256" y="518" width="100" height="100" rx="8" fill="#00735C"/>
<rect x="356" y="518" width="100" height="100" fill="white"/>
<rect x="357" y="218" width="100" height="100" fill="white"/>
<rect x="257" y="218" width="100" height="100" rx="8" fill="#00735C"/>
</svg>
